{
	"asset":{
		"generator":"Khronos glTF Blender I/O v4.2.57",
		"version":"2.0"
	},
	"scene":0,
	"scenes":[
		{
			"name":"Scene",
			"nodes":[
				0
			]
		}
	],
	"nodes":[
		{
			"mesh":0,
			"name":"Plane"
		}
	],
	"materials":[
		{
			"doubleSided":true,
			"name":"Material.002",
			"pbrMetallicRoughness":{
				"baseColorTexture":{
					"index":0
				},
				"metallicFactor":0
			}
		}
	],
	"meshes":[
		{
			"name":"Plane",
			"primitives":[
				{
					"attributes":{
						"POSITION":0,
						"NORMAL":1,
						"TEXCOORD_0":2,
						"TANGENT":3,
						"COLOR_0":4,
						"COLOR_1":5
					},
					"indices":6,
					"material":0
				}
			]
		}
	],
	"textures":[
		{
			"sampler":0,
			"source":0
		}
	],
	"images":[
		{
			"mimeType":"image/png",
			"name":"render_texture",
			"uri":"render_texture.png"
		}
	],
	"accessors":[
		{
			"bufferView":0,
			"componentType":5126,
			"count":1909,
			"max":[
				36.32640075683594,
				10.07797908782959,
				32.53054428100586
			],
			"min":[
				-35.88776779174805,
				-8.003711700439453,
				-30.05087661743164
			],
			"type":"VEC3"
		},
		{
			"bufferView":1,
			"componentType":5126,
			"count":1909,
			"type":"VEC3"
		},
		{
			"bufferView":2,
			"componentType":5126,
			"count":1909,
			"type":"VEC2"
		},
		{
			"bufferView":3,
			"componentType":5126,
			"count":1909,
			"type":"VEC4"
		},
		{
			"bufferView":4,
			"componentType":5121,
			"count":1909,
			"normalized":true,
			"type":"VEC4"
		},
		{
			"bufferView":5,
			"componentType":5126,
			"count":1909,
			"type":"VEC3"
		},
		{
			"bufferView":6,
			"componentType":5123,
			"count":10983,
			"type":"SCALAR"
		}
	],
	"bufferViews":[
		{
			"buffer":0,
			"byteLength":22908,
			"byteOffset":0,
			"target":34962
		},
		{
			"buffer":0,
			"byteLength":22908,
			"byteOffset":22908,
			"target":34962
		},
		{
			"buffer":0,
			"byteLength":15272,
			"byteOffset":45816,
			"target":34962
		},
		{
			"buffer":0,
			"byteLength":30544,
			"byteOffset":61088,
			"target":34962
		},
		{
			"buffer":0,
			"byteLength":7636,
			"byteOffset":91632,
			"target":34962
		},
		{
			"buffer":0,
			"byteLength":22908,
			"byteOffset":99268,
			"target":34962
		},
		{
			"buffer":0,
			"byteLength":21966,
			"byteOffset":122176,
			"target":34963
		}
	],
	"samplers":[
		{
			"magFilter":9729,
			"minFilter":9987
		}
	],
	"buffers":[
		{
			"byteLength":144144,
			"uri":"bujama-2.bin"
		}
	]
}
