{
	"asset":{
		"generator":"Khronos glTF Blender I/O v4.2.57",
		"version":"2.0"
	},
	"scene":0,
	"scenes":[
		{
			"name":"Scene",
			"nodes":[
				0
			]
		}
	],
	"nodes":[
		{
			"mesh":0,
			"name":"Plane"
		}
	],
	"materials":[
		{
			"doubleSided":true,
			"name":"Material.002",
			"pbrMetallicRoughness":{
				"baseColorTexture":{
					"index":0
				},
				"metallicFactor":0
			}
		}
	],
	"meshes":[
		{
			"name":"Plane",
			"primitives":[
				{
					"attributes":{
						"POSITION":0,
						"NORMAL":1,
						"TEXCOORD_0":2,
						"COLOR_0":3,
						"COLOR_1":4
					},
					"indices":5,
					"material":0	
				}
			]
		}
	],
	"textures":[
		{
			"sampler":0,
			"source":0
		}
	],
	"images":[
		{
			"mimeType":"image/png",
			"name":"render_texture",
			"uri":"render_texture.png"
		}
	],
	"accessors":[
		{
			"bufferView":0,
			"componentType":5126,
			"count":1909,
			"max":[
				10.523122787475586,
				3.4118006229400635,
				9.996720314025879
			],
			"min":[
				-10.32258415222168,
				-1.8077514171600342,
				-8.06834888458252
			],
			"type":"VEC3"
		},
		{
			"bufferView":1,
			"componentType":5126,
			"count":1909,
			"type":"VEC3"
		},
		{
			"bufferView":2,
			"componentType":5126,
			"count":1909,
			"type":"VEC2"
		},
		{
			"bufferView":3,
			"componentType":5121,
			"count":1909,
			"normalized":true,
			"type":"VEC4"
		},
		{
			"bufferView":4,
			"componentType":5126,
			"count":1909,
			"type":"VEC3"
		},
		{
			"bufferView":5,
			"componentType":5123,
			"count":10989,
			"type":"SCALAR"
		}
	],
	"bufferViews":[
		{
			"buffer":0,
			"byteLength":22908,
			"byteOffset":0,
			"target":34962
		},
		{
			"buffer":0,
			"byteLength":22908,
			"byteOffset":22908,
			"target":34962
		},
		{
			"buffer":0,
			"byteLength":15272,
			"byteOffset":45816,
			"target":34962
		},
		{
			"buffer":0,
			"byteLength":7636,
			"byteOffset":61088,
			"target":34962
		},
		{
			"buffer":0,
			"byteLength":22908,
			"byteOffset":68724,
			"target":34962
		},
		{
			"buffer":0,
			"byteLength":21978,
			"byteOffset":91632,
			"target":34963
		}
	],
	"samplers":[
		{
			"magFilter":9729,
			"minFilter":9987
		}
	],
	"buffers":[
		{
			"byteLength":113612,
			"uri":"bujama.bin"
		}
	]
}
