{
	"asset":{
		"generator":"Khronos glTF Blender I/O v4.2.57",
		"version":"2.0"
	},
	"scene":0,
	"scenes":[
		{
			"name":"Scene",
			"nodes":[
				2,
				5,
				6,
				7
			]
		}
	],
	"nodes":[
		{
			"mesh":0,
			"name":"Plane"
		},
		{
			"mesh":1,
			"name":"Plane.001"
		},
		{
			"children":[
				0,
				1
			],
			"name":"Collection"
		},
		{
			"mesh":2,
			"name":"Plane"
		},
		{
			"mesh":3,
			"name":"Plane.001"
		},
		{
			"children":[
				3,
				4
			],
			"name":"Collection.001"
		},
		{
			"mesh":4,
			"name":"Plane"
		},
		{
			"mesh":5,
			"name":"Plane.001"
		}
	],
	"materials":[
		{
			"doubleSided":true,
			"name":"Material.002",
			"pbrMetallicRoughness":{
				"baseColorTexture":{
					"index":0
				},
				"metallicFactor":0
			}
		}
	],
	"meshes":[
		{
			"name":"Plane",
			"primitives":[
				{
					"attributes":{
						"POSITION":0,
						"NORMAL":1,
						"TEXCOORD_0":2,
						"TANGENT":3,
						"COLOR_0":4,
						"COLOR_1":5
					},
					"indices":6,
					"material":0
				}
			]
		},
		{
			"name":"Plane.001",
			"primitives":[
				{
					"attributes":{
						"POSITION":7,
						"NORMAL":8,
						"TEXCOORD_0":9,
						"TANGENT":10,
						"COLOR_0":11,
						"COLOR_1":12
					},
					"indices":6,
					"material":0
				}
			]
		},
		{
			"name":"Plane",
			"primitives":[
				{
					"attributes":{
						"POSITION":13,
						"NORMAL":14,
						"TEXCOORD_0":15,
						"TANGENT":16,
						"COLOR_0":17,
						"COLOR_1":18
					},
					"indices":6,
					"material":0
				}
			]
		},
		{
			"name":"Plane.001",
			"primitives":[
				{
					"attributes":{
						"POSITION":19,
						"NORMAL":20,
						"TEXCOORD_0":21,
						"TANGENT":22,
						"COLOR_0":23,
						"COLOR_1":24
					},
					"indices":6,
					"material":0
				}
			]
		},
		{
			"name":"Plane",
			"primitives":[
				{
					"attributes":{
						"POSITION":25,
						"NORMAL":26,
						"TEXCOORD_0":27,
						"TANGENT":28,
						"COLOR_0":29,
						"COLOR_1":30
					},
					"indices":6,
					"material":0
				}
			]
		},
		{
			"name":"Plane.001",
			"primitives":[
				{
					"attributes":{
						"POSITION":31,
						"NORMAL":32,
						"TEXCOORD_0":33,
						"TANGENT":34,
						"COLOR_0":35,
						"COLOR_1":36
					},
					"indices":6,
					"material":0
				}
			]
		}
	],
	"textures":[
		{
			"sampler":0,
			"source":0
		}
	],
	"images":[
		{
			"mimeType":"image/png",
			"name":"render_texture",
			"uri":"render_texture.png"
		}
	],
	"accessors":[
		{
			"bufferView":0,
			"componentType":5126,
			"count":1921,
			"max":[
				10.523122787475586,
				3.388378143310547,
				9.996720314025879
			],
			"min":[
				-10.32258415222168,
				-1.8077514171600342,
				-8.06834888458252
			],
			"type":"VEC3"
		},
		{
			"bufferView":1,
			"componentType":5126,
			"count":1921,
			"type":"VEC3"
		},
		{
			"bufferView":2,
			"componentType":5126,
			"count":1921,
			"type":"VEC2"
		},
		{
			"bufferView":3,
			"componentType":5126,
			"count":1921,
			"type":"VEC4"
		},
		{
			"bufferView":4,
			"componentType":5121,
			"count":1921,
			"normalized":true,
			"type":"VEC4"
		},
		{
			"bufferView":5,
			"componentType":5126,
			"count":1921,
			"type":"VEC3"
		},
		{
			"bufferView":6,
			"componentType":5123,
			"count":10392,
			"type":"SCALAR"
		},
		{
			"bufferView":7,
			"componentType":5126,
			"count":1921,
			"max":[
				10.523122787475586,
				3.388378143310547,
				9.996720314025879
			],
			"min":[
				-10.32258415222168,
				-1.8077514171600342,
				-8.06834888458252
			],
			"type":"VEC3"
		},
		{
			"bufferView":8,
			"componentType":5126,
			"count":1921,
			"type":"VEC3"
		},
		{
			"bufferView":9,
			"componentType":5126,
			"count":1921,
			"type":"VEC2"
		},
		{
			"bufferView":10,
			"componentType":5126,
			"count":1921,
			"type":"VEC4"
		},
		{
			"bufferView":11,
			"componentType":5121,
			"count":1921,
			"normalized":true,
			"type":"VEC4"
		},
		{
			"bufferView":12,
			"componentType":5126,
			"count":1921,
			"type":"VEC3"
		},
		{
			"bufferView":13,
			"componentType":5126,
			"count":1921,
			"max":[
				10.523122787475586,
				3.388378143310547,
				9.996720314025879
			],
			"min":[
				-10.32258415222168,
				-1.8077514171600342,
				-8.06834888458252
			],
			"type":"VEC3"
		},
		{
			"bufferView":14,
			"componentType":5126,
			"count":1921,
			"type":"VEC3"
		},
		{
			"bufferView":15,
			"componentType":5126,
			"count":1921,
			"type":"VEC2"
		},
		{
			"bufferView":16,
			"componentType":5126,
			"count":1921,
			"type":"VEC4"
		},
		{
			"bufferView":17,
			"componentType":5121,
			"count":1921,
			"normalized":true,
			"type":"VEC4"
		},
		{
			"bufferView":18,
			"componentType":5126,
			"count":1921,
			"type":"VEC3"
		},
		{
			"bufferView":19,
			"componentType":5126,
			"count":1921,
			"max":[
				10.523122787475586,
				3.388378143310547,
				9.996720314025879
			],
			"min":[
				-10.32258415222168,
				-1.8077514171600342,
				-8.06834888458252
			],
			"type":"VEC3"
		},
		{
			"bufferView":20,
			"componentType":5126,
			"count":1921,
			"type":"VEC3"
		},
		{
			"bufferView":21,
			"componentType":5126,
			"count":1921,
			"type":"VEC2"
		},
		{
			"bufferView":22,
			"componentType":5126,
			"count":1921,
			"type":"VEC4"
		},
		{
			"bufferView":23,
			"componentType":5121,
			"count":1921,
			"normalized":true,
			"type":"VEC4"
		},
		{
			"bufferView":24,
			"componentType":5126,
			"count":1921,
			"type":"VEC3"
		},
		{
			"bufferView":25,
			"componentType":5126,
			"count":1921,
			"max":[
				10.523122787475586,
				3.388378143310547,
				9.996720314025879
			],
			"min":[
				-10.32258415222168,
				-1.8077514171600342,
				-8.06834888458252
			],
			"type":"VEC3"
		},
		{
			"bufferView":26,
			"componentType":5126,
			"count":1921,
			"type":"VEC3"
		},
		{
			"bufferView":27,
			"componentType":5126,
			"count":1921,
			"type":"VEC2"
		},
		{
			"bufferView":28,
			"componentType":5126,
			"count":1921,
			"type":"VEC4"
		},
		{
			"bufferView":29,
			"componentType":5121,
			"count":1921,
			"normalized":true,
			"type":"VEC4"
		},
		{
			"bufferView":30,
			"componentType":5126,
			"count":1921,
			"type":"VEC3"
		},
		{
			"bufferView":31,
			"componentType":5126,
			"count":1921,
			"max":[
				10.523122787475586,
				3.388378143310547,
				9.996720314025879
			],
			"min":[
				-10.32258415222168,
				-1.8077514171600342,
				-8.06834888458252
			],
			"type":"VEC3"
		},
		{
			"bufferView":32,
			"componentType":5126,
			"count":1921,
			"type":"VEC3"
		},
		{
			"bufferView":33,
			"componentType":5126,
			"count":1921,
			"type":"VEC2"
		},
		{
			"bufferView":34,
			"componentType":5126,
			"count":1921,
			"type":"VEC4"
		},
		{
			"bufferView":35,
			"componentType":5121,
			"count":1921,
			"normalized":true,
			"type":"VEC4"
		},
		{
			"bufferView":36,
			"componentType":5126,
			"count":1921,
			"type":"VEC3"
		}
	],
	"bufferViews":[
		{
			"buffer":0,
			"byteLength":23052,
			"byteOffset":0,
			"target":34962
		},
		{
			"buffer":0,
			"byteLength":23052,
			"byteOffset":23052,
			"target":34962
		},
		{
			"buffer":0,
			"byteLength":15368,
			"byteOffset":46104,
			"target":34962
		},
		{
			"buffer":0,
			"byteLength":30736,
			"byteOffset":61472,
			"target":34962
		},
		{
			"buffer":0,
			"byteLength":7684,
			"byteOffset":92208,
			"target":34962
		},
		{
			"buffer":0,
			"byteLength":23052,
			"byteOffset":99892,
			"target":34962
		},
		{
			"buffer":0,
			"byteLength":20784,
			"byteOffset":122944,
			"target":34963
		},
		{
			"buffer":0,
			"byteLength":23052,
			"byteOffset":143728,
			"target":34962
		},
		{
			"buffer":0,
			"byteLength":23052,
			"byteOffset":166780,
			"target":34962
		},
		{
			"buffer":0,
			"byteLength":15368,
			"byteOffset":189832,
			"target":34962
		},
		{
			"buffer":0,
			"byteLength":30736,
			"byteOffset":205200,
			"target":34962
		},
		{
			"buffer":0,
			"byteLength":7684,
			"byteOffset":235936,
			"target":34962
		},
		{
			"buffer":0,
			"byteLength":23052,
			"byteOffset":243620,
			"target":34962
		},
		{
			"buffer":0,
			"byteLength":23052,
			"byteOffset":266672,
			"target":34962
		},
		{
			"buffer":0,
			"byteLength":23052,
			"byteOffset":289724,
			"target":34962
		},
		{
			"buffer":0,
			"byteLength":15368,
			"byteOffset":312776,
			"target":34962
		},
		{
			"buffer":0,
			"byteLength":30736,
			"byteOffset":328144,
			"target":34962
		},
		{
			"buffer":0,
			"byteLength":7684,
			"byteOffset":358880,
			"target":34962
		},
		{
			"buffer":0,
			"byteLength":23052,
			"byteOffset":366564,
			"target":34962
		},
		{
			"buffer":0,
			"byteLength":23052,
			"byteOffset":389616,
			"target":34962
		},
		{
			"buffer":0,
			"byteLength":23052,
			"byteOffset":412668,
			"target":34962
		},
		{
			"buffer":0,
			"byteLength":15368,
			"byteOffset":435720,
			"target":34962
		},
		{
			"buffer":0,
			"byteLength":30736,
			"byteOffset":451088,
			"target":34962
		},
		{
			"buffer":0,
			"byteLength":7684,
			"byteOffset":481824,
			"target":34962
		},
		{
			"buffer":0,
			"byteLength":23052,
			"byteOffset":489508,
			"target":34962
		},
		{
			"buffer":0,
			"byteLength":23052,
			"byteOffset":512560,
			"target":34962
		},
		{
			"buffer":0,
			"byteLength":23052,
			"byteOffset":535612,
			"target":34962
		},
		{
			"buffer":0,
			"byteLength":15368,
			"byteOffset":558664,
			"target":34962
		},
		{
			"buffer":0,
			"byteLength":30736,
			"byteOffset":574032,
			"target":34962
		},
		{
			"buffer":0,
			"byteLength":7684,
			"byteOffset":604768,
			"target":34962
		},
		{
			"buffer":0,
			"byteLength":23052,
			"byteOffset":612452,
			"target":34962
		},
		{
			"buffer":0,
			"byteLength":23052,
			"byteOffset":635504,
			"target":34962
		},
		{
			"buffer":0,
			"byteLength":23052,
			"byteOffset":658556,
			"target":34962
		},
		{
			"buffer":0,
			"byteLength":15368,
			"byteOffset":681608,
			"target":34962
		},
		{
			"buffer":0,
			"byteLength":30736,
			"byteOffset":696976,
			"target":34962
		},
		{
			"buffer":0,
			"byteLength":7684,
			"byteOffset":727712,
			"target":34962
		},
		{
			"buffer":0,
			"byteLength":23052,
			"byteOffset":735396,
			"target":34962
		}
	],
	"samplers":[
		{
			"magFilter":9729,
			"minFilter":9987
		}
	],
	"buffers":[
		{
			"byteLength":758448,
			"uri":"bujama2.bin"
		}
	]
}
