{
	"asset":{
		"generator":"Khronos glTF Blender I/O v4.2.57",
		"version":"2.0"
	},
	"scene":0,
	"scenes":[
		{
			"name":"Scene",
			"nodes":[
				0
			]
		}
	],
	"nodes":[
		{
			"mesh":0,
			"name":"Plane",
			"scale":[
				5.591594219207764,
				5.591594219207764,
				5.591594219207764
			],
			"translation":[
				0,
				1.776209831237793,
				0
			]
		}
	],
	"materials":[
		{
			"doubleSided":true,
			"name":"Material.002",
			"pbrMetallicRoughness":{
				"baseColorTexture":{
					"index":0
				},
				"metallicFactor":0
			}
		}
	],
	"meshes":[
		{
			"name":"Plane",
			"primitives":[
				{
					"attributes":{
						"POSITION":0,
						"NORMAL":1,
						"TEXCOORD_0":2,
						"COLOR_0":3,
						"COLOR_1":4
					},
					"indices":5,
					"material":0
				}
			]
		}
	],
	"textures":[
		{
			"sampler":0,
			"source":0
		}
	],
	"images":[
		{
			"mimeType":"image/png",
			"name":"baked_texture",
			"uri":"baked_texture.png"
		}
	],
	"accessors":[
		{
			"bufferView":0,
			"componentType":5126,
			"count":1909,
			"max":[
				36.79167938232422,
				9.792306900024414,
				32.53054428100586
			],
			"min":[
				-35.88776779174805,
				-8.003711700439453,
				-30.05402374267578
			],
			"type":"VEC3"
		},
		{
			"bufferView":1,
			"componentType":5126,
			"count":1909,
			"type":"VEC3"
		},
		{
			"bufferView":2,
			"componentType":5126,
			"count":1909,
			"type":"VEC2"
		},
		{
			"bufferView":3,
			"componentType":5121,
			"count":1909,
			"normalized":true,
			"type":"VEC4"
		},
		{
			"bufferView":4,
			"componentType":5126,
			"count":1909,
			"type":"VEC3"
		},
		{
			"bufferView":5,
			"componentType":5123,
			"count":10989,
			"type":"SCALAR"
		}
	],
	"bufferViews":[
		{
			"buffer":0,
			"byteLength":22908,
			"byteOffset":0,
			"target":34962
		},
		{
			"buffer":0,
			"byteLength":22908,
			"byteOffset":22908,
			"target":34962
		},
		{
			"buffer":0,
			"byteLength":15272,
			"byteOffset":45816,
			"target":34962
		},
		{
			"buffer":0,
			"byteLength":7636,
			"byteOffset":61088,
			"target":34962
		},
		{
			"buffer":0,
			"byteLength":22908,
			"byteOffset":68724,
			"target":34962
		},
		{
			"buffer":0,
			"byteLength":21978,
			"byteOffset":91632,
			"target":34963
		}
	],
	"samplers":[
		{
			"magFilter":9729,
			"minFilter":9987
		}
	],
	"buffers":[
		{
			"byteLength":113612,
			"uri":"bujama-3.bin"
		}
	]
}
